<?xml version="1.0" standalone="no"?>
<!DOCTYPE svg PUBLIC "-//W3C//DTD SVG 20010904//EN"
 "http://www.w3.org/TR/2001/REC-SVG-20010904/DTD/svg10.dtd">
<svg version="1.0" xmlns="http://www.w3.org/2000/svg"
 width="1933.000000pt" height="1078.000000pt" viewBox="0 0 1933.000000 1078.000000"
 preserveAspectRatio="xMidYMid meet">

<g transform="translate(0.000000,1078.000000) scale(0.100000,-0.100000)"
fill="#000000" stroke="none">
<path d="M7841 7539 c-36 -59 -40 -442 -10 -984 8 -134 13 -646 14 -1415 1
-855 5 -1214 13 -1238 12 -37 27 -56 115 -155 87 -96 262 -308 343 -417 23
-30 54 -66 68 -79 72 -68 11 15 -234 318 l-270 334 0 1833 c0 1234 -3 1834
-10 1834 -6 0 -19 -14 -29 -31z"/>
<path d="M7910 7563 c0 -5 35 -51 78 -103 42 -53 161 -200 265 -327 l187 -232
1 -370 1 -370 28 -33 c25 -30 256 -313 433 -532 40 -49 104 -128 143 -175 38
-47 154 -189 256 -316 103 -126 201 -246 218 -265 50 -55 22 -11 -35 55 -28
33 -90 112 -137 175 -48 63 -131 167 -185 232 -54 64 -127 153 -163 198 -36
45 -101 125 -145 178 -44 54 -100 124 -125 157 -25 33 -67 88 -95 122 -170
209 -157 159 -153 566 2 289 0 337 -14 374 -19 49 -101 169 -165 245 -66 76
-190 230 -245 303 -51 69 -148 146 -148 118z"/>
<path d="M11493 6753 c-26 -27 -58 -66 -72 -88 -38 -59 -135 -179 -671 -825
-146 -176 -307 -375 -365 -451 -11 -14 -39 -50 -63 -80 -23 -30 -62 -78 -85
-108 -23 -29 -65 -81 -92 -115 -28 -33 -70 -88 -95 -121 -134 -179 -282 -355
-299 -355 -10 0 -44 26 -76 58 -67 66 -63 55 14 -41 52 -65 55 -67 71 -50 10
10 244 297 521 638 276 341 530 654 564 695 34 41 165 203 292 360 127 157
270 332 317 390 48 58 92 113 97 123 19 33 -11 18 -58 -30z"/>
<path d="M11580 6070 l-1 -735 -309 -380 c-170 -209 -305 -381 -300 -383 16
-6 59 29 82 67 31 51 169 230 316 409 99 123 109 134 157 192 87 103 80 48 80
665 0 418 4 569 14 627 19 108 11 223 -18 251 l-21 21 0 -734z"/>
<path d="M8444 5378 c3 -13 5 -34 5 -47 1 -22 3 -23 14 -9 6 9 18 17 25 20 10
2 8 11 -8 31 -26 33 -41 35 -36 5z"/>
<path d="M8447 5080 c-10 -249 -8 -1812 2 -1829 7 -11 12 -8 25 12 16 23 17
94 17 819 -1 496 -5 821 -12 868 -5 41 -13 127 -17 190 l-7 115 -8 -175z"/>
<path d="M8589 5223 c5 -10 31 -44 58 -75 26 -31 64 -78 83 -103 19 -26 44
-57 55 -69 11 -13 38 -47 60 -76 22 -29 51 -65 65 -80 14 -15 41 -49 60 -74
19 -26 46 -60 60 -76 14 -16 41 -50 60 -75 19 -26 50 -66 67 -89 38 -47 56
-70 114 -146 42 -54 90 -113 313 -379 60 -71 115 -132 123 -135 20 -8 15 -2
-502 634 -159 195 -319 391 -355 436 -220 273 -262 324 -266 324 -3 0 0 -8 5
-17z"/>
<path d="M10629 4903 c-8 -10 -21 -27 -29 -37 -13 -17 -13 -19 0 -11 8 5 29
11 47 14 32 6 32 6 15 29 -17 22 -19 22 -33 5z"/>
<path d="M10373 4589 c-103 -127 -202 -250 -220 -273 -17 -22 -111 -138 -207
-256 -97 -118 -176 -219 -176 -223 0 -16 58 28 87 65 34 44 217 272 328 408
91 111 143 177 185 235 62 85 87 117 143 186 50 61 67 89 53 89 -2 0 -89 -104
-193 -231z"/>
<path d="M9581 4764 c13 -17 26 -30 28 -27 3 2 -8 16 -24 31 l-28 27 24 -31z"/>
<path d="M10753 4770 c3 -9 30 -55 60 -102 49 -76 87 -111 103 -95 3 3 -21 36
-53 74 -32 38 -71 85 -86 104 -16 19 -26 27 -24 19z"/>
</g>
</svg>
